<svg id="visual" viewBox="0 0 900 600" width="900" height="600" xmlns="http://www.w3.org/2000/svg" xmlns:xlink="http://www.w3.org/1999/xlink" version="1.1"><g stroke-width="1" stroke-linejoin="bevel"><path d="M422 278L504 272L493 183Z" fill="#002b5d" stroke="#002b5d"></path><path d="M493 183L381 196L422 278Z" fill="#1b44c2" stroke="#1b44c2"></path><path d="M598 223L510 110L493 183Z" fill="#003990" stroke="#003990"></path><path d="M493 183L402 101L381 196Z" fill="#0941b1" stroke="#0941b1"></path><path d="M504 272L598 223L493 183Z" fill="#001f3c" stroke="#001f3c"></path><path d="M514 417L587 290L504 272Z" fill="#001f3c" stroke="#001f3c"></path><path d="M504 272L587 290L598 223Z" fill="#00101c" stroke="#00101c"></path><path d="M510 110L402 101L493 183Z" fill="#00254d" stroke="#00254d"></path><path d="M402 101L319 180L381 196Z" fill="#00182b" stroke="#00182b"></path><path d="M381 196L278 325L422 278Z" fill="#00254d" stroke="#00254d"></path><path d="M298 381L429 382L422 278Z" fill="#002b5d" stroke="#002b5d"></path><path d="M422 278L429 382L504 272Z" fill="#003990" stroke="#003990"></path><path d="M429 382L514 417L504 272Z" fill="#00357f" stroke="#00357f"></path><path d="M705 126L626 126L732 213Z" fill="#001f3c" stroke="#001f3c"></path><path d="M598 223L626 126L510 110Z" fill="#0941b1" stroke="#0941b1"></path><path d="M319 180L278 325L381 196Z" fill="#00306e" stroke="#00306e"></path><path d="M392 539L537 509L514 417Z" fill="#003da1" stroke="#003da1"></path><path d="M396 0L329 69L402 101Z" fill="#00101c" stroke="#00101c"></path><path d="M402 101L329 69L319 180Z" fill="#003da1" stroke="#003da1"></path><path d="M319 180L196 225L278 325Z" fill="#00254d" stroke="#00254d"></path><path d="M396 0L402 101L510 110Z" fill="#003da1" stroke="#003da1"></path><path d="M278 325L298 381L422 278Z" fill="#1b44c2" stroke="#1b44c2"></path><path d="M620 433L686 275L587 290Z" fill="#1b44c2" stroke="#1b44c2"></path><path d="M587 290L686 275L598 223Z" fill="#003990" stroke="#003990"></path><path d="M534 0L396 0L510 110Z" fill="#00101c" stroke="#00101c"></path><path d="M565 0L534 0L510 110Z" fill="#00306e" stroke="#00306e"></path><path d="M313 0L238 128L329 69Z" fill="#1b44c2" stroke="#1b44c2"></path><path d="M329 69L238 128L319 180Z" fill="#00357f" stroke="#00357f"></path><path d="M626 126L565 0L510 110Z" fill="#1b44c2" stroke="#1b44c2"></path><path d="M514 417L620 433L587 290Z" fill="#003990" stroke="#003990"></path><path d="M514 417L585 463L620 433Z" fill="#003da1" stroke="#003da1"></path><path d="M537 509L585 463L514 417Z" fill="#0941b1" stroke="#0941b1"></path><path d="M238 128L196 225L319 180Z" fill="#001f3c" stroke="#001f3c"></path><path d="M278 325L224 397L298 381Z" fill="#002b5d" stroke="#002b5d"></path><path d="M732 213L626 126L598 223Z" fill="#003da1" stroke="#003da1"></path><path d="M626 126L701 0L565 0Z" fill="#003990" stroke="#003990"></path><path d="M777 339L732 213L686 275Z" fill="#00101c" stroke="#00101c"></path><path d="M686 275L732 213L598 223Z" fill="#003990" stroke="#003990"></path><path d="M396 0L313 0L329 69Z" fill="#00101c" stroke="#00101c"></path><path d="M392 539L514 417L429 382Z" fill="#002b5d" stroke="#002b5d"></path><path d="M731 513L700 426L620 433Z" fill="#00357f" stroke="#00357f"></path><path d="M164 283L224 397L278 325Z" fill="#00306e" stroke="#00306e"></path><path d="M298 381L392 539L429 382Z" fill="#00101c" stroke="#00101c"></path><path d="M196 225L164 283L278 325Z" fill="#003da1" stroke="#003da1"></path><path d="M96 205L164 283L196 225Z" fill="#00101c" stroke="#00101c"></path><path d="M731 513L620 433L585 463Z" fill="#00357f" stroke="#00357f"></path><path d="M620 433L700 426L686 275Z" fill="#002b5d" stroke="#002b5d"></path><path d="M281 509L392 539L298 381Z" fill="#0941b1" stroke="#0941b1"></path><path d="M217 462L281 509L298 381Z" fill="#00101c" stroke="#00101c"></path><path d="M217 462L298 381L224 397Z" fill="#002b5d" stroke="#002b5d"></path><path d="M93 461L217 462L224 397Z" fill="#00101c" stroke="#00101c"></path><path d="M700 426L777 339L686 275Z" fill="#002b5d" stroke="#002b5d"></path><path d="M784 0L701 0L705 126Z" fill="#003990" stroke="#003990"></path><path d="M792 185L705 126L732 213Z" fill="#1b44c2" stroke="#1b44c2"></path><path d="M705 126L701 0L626 126Z" fill="#1b44c2" stroke="#1b44c2"></path><path d="M777 339L792 185L732 213Z" fill="#001f3c" stroke="#001f3c"></path><path d="M109 60L96 205L238 128Z" fill="#00182b" stroke="#00182b"></path><path d="M238 128L96 205L196 225Z" fill="#00101c" stroke="#00101c"></path><path d="M78 435L93 461L224 397Z" fill="#00254d" stroke="#00254d"></path><path d="M392 539L462 600L537 509Z" fill="#00357f" stroke="#00357f"></path><path d="M537 509L580 600L585 463Z" fill="#003da1" stroke="#003da1"></path><path d="M429 600L462 600L392 539Z" fill="#0941b1" stroke="#0941b1"></path><path d="M338 600L429 600L392 539Z" fill="#003990" stroke="#003990"></path><path d="M313 0L166 0L238 128Z" fill="#00101c" stroke="#00101c"></path><path d="M462 600L580 600L537 509Z" fill="#0941b1" stroke="#0941b1"></path><path d="M700 426L835 431L777 339Z" fill="#003990" stroke="#003990"></path><path d="M165 600L338 600L281 509Z" fill="#002b5d" stroke="#002b5d"></path><path d="M281 509L338 600L392 539Z" fill="#003da1" stroke="#003da1"></path><path d="M684 600L731 513L585 463Z" fill="#00101c" stroke="#00101c"></path><path d="M792 185L821 83L705 126Z" fill="#0941b1" stroke="#0941b1"></path><path d="M900 103L821 83L792 185Z" fill="#0941b1" stroke="#0941b1"></path><path d="M166 0L109 60L238 128Z" fill="#00101c" stroke="#00101c"></path><path d="M821 83L784 0L705 126Z" fill="#00254d" stroke="#00254d"></path><path d="M0 230L61 289L96 205Z" fill="#001f3c" stroke="#001f3c"></path><path d="M96 205L61 289L164 283Z" fill="#00254d" stroke="#00254d"></path><path d="M217 462L165 600L281 509Z" fill="#003990" stroke="#003990"></path><path d="M811 502L835 431L700 426Z" fill="#001f3c" stroke="#001f3c"></path><path d="M900 273L900 233L792 185Z" fill="#001f3c" stroke="#001f3c"></path><path d="M580 600L684 600L585 463Z" fill="#0941b1" stroke="#0941b1"></path><path d="M731 513L811 502L700 426Z" fill="#00357f" stroke="#00357f"></path><path d="M78 435L224 397L164 283Z" fill="#00101c" stroke="#00101c"></path><path d="M61 289L78 435L164 283Z" fill="#002b5d" stroke="#002b5d"></path><path d="M900 273L792 185L777 339Z" fill="#00101c" stroke="#00101c"></path><path d="M821 83L900 0L784 0Z" fill="#00254d" stroke="#00254d"></path><path d="M900 413L900 273L777 339Z" fill="#00306e" stroke="#00306e"></path><path d="M831 600L811 502L731 513Z" fill="#00306e" stroke="#00306e"></path><path d="M835 431L900 413L777 339Z" fill="#0941b1" stroke="#0941b1"></path><path d="M166 0L76 0L109 60Z" fill="#00306e" stroke="#00306e"></path><path d="M0 60L0 230L96 205Z" fill="#003da1" stroke="#003da1"></path><path d="M900 233L900 103L792 185Z" fill="#003990" stroke="#003990"></path><path d="M0 60L96 205L109 60Z" fill="#00254d" stroke="#00254d"></path><path d="M61 289L0 362L78 435Z" fill="#1b44c2" stroke="#1b44c2"></path><path d="M0 230L0 287L61 289Z" fill="#1b44c2" stroke="#1b44c2"></path><path d="M108 600L165 600L93 461Z" fill="#00101c" stroke="#00101c"></path><path d="M93 461L165 600L217 462Z" fill="#0941b1" stroke="#0941b1"></path><path d="M900 520L900 413L835 431Z" fill="#002b5d" stroke="#002b5d"></path><path d="M0 287L0 362L61 289Z" fill="#00182b" stroke="#00182b"></path><path d="M0 510L108 600L93 461Z" fill="#00357f" stroke="#00357f"></path><path d="M76 0L0 60L109 60Z" fill="#00306e" stroke="#00306e"></path><path d="M900 103L900 0L821 83Z" fill="#00101c" stroke="#00101c"></path><path d="M0 510L93 461L78 435Z" fill="#00306e" stroke="#00306e"></path><path d="M76 0L0 0L0 60Z" fill="#001f3c" stroke="#001f3c"></path><path d="M684 600L831 600L731 513Z" fill="#0941b1" stroke="#0941b1"></path><path d="M811 502L900 520L835 431Z" fill="#00101c" stroke="#00101c"></path><path d="M831 600L900 520L811 502Z" fill="#001f3c" stroke="#001f3c"></path><path d="M0 362L0 510L78 435Z" fill="#00101c" stroke="#00101c"></path><path d="M831 600L900 600L900 520Z" fill="#002b5d" stroke="#002b5d"></path><path d="M0 510L0 600L108 600Z" fill="#1b44c2" stroke="#1b44c2"></path></g></svg>